<svg xmlns="http://www.w3.org/2000/svg" version="1.1" xmlns:xlink="http://www.w3.org/1999/xlink" xmlns:svgjs="http://svgjs.dev/svgjs" width="1500" height="1500" viewBox="0 0 1500 1500"><rect width="1500" height="1500" fill="#444444"></rect><g transform="matrix(0.6666666666666666,0,0,0.6666666666666666,249.39393939393943,675.343495101885)"><svg viewBox="0 0 396 59" data-background-color="#444444" preserveAspectRatio="xMidYMid meet" height="223" width="1500" xmlns="http://www.w3.org/2000/svg" xmlns:xlink="http://www.w3.org/1999/xlink"><g id="tight-bounds" transform="matrix(1,0,0,1,0.2400000000000091,0.1282541860231845)"><svg viewBox="0 0 395.52 58.74349162795361" height="58.74349162795361" width="395.52"><g><svg viewBox="0 0 555.0208207086971 82.43290082585278" height="58.74349162795361" width="395.52"><g><rect width="5.379076749080359" height="71.57704847396768" x="140.04039121333307" y="5.427926175942552" fill="#ffffff" opacity="1" stroke-width="0" stroke="transparent" fill-opacity="1" class="rect-yte-0" data-fill-palette-color="primary" rx="1%" id="yte-0" data-palette-color="#ffffff"></rect></g><g transform="matrix(1,0,0,1,159.5008207086971,11.39268021543986)"><svg viewBox="0 0 395.52 59.64754039497306" height="59.64754039497306" width="395.52"><g id="textblocktransform"><svg viewBox="0 0 395.52 59.64754039497306" height="59.64754039497306" width="395.52" id="textblock"><g><svg viewBox="0 0 395.52 59.64754039497306" height="59.64754039497306" width="395.52"><g transform="matrix(1,0,0,1,0,0)"><svg width="395.52" viewBox="1.95 -31.74 271.95 41.019999999999996" height="59.64754039497306" data-palette-color="#ffffff"><path d="M1.95 0L13.92 0 13.92-1.27 10.06-1.27 10.06-13.43 14.7-13.43 22.51 0 29.88 0Q29.88-1.07 29.3-1.22L29.3-1.22Q29.05-1.27 28.71-1.27L28.71-1.27 26.86-1.27 18.99-13.87Q23.63-14.99 25.34-18.7L25.34-18.7Q25.98-20.17 25.98-21.68L25.98-21.68Q25.98-25.34 22.8-27.54L22.8-27.54Q20.21-29.3 16.41-29.3L16.41-29.3 1.95-29.3 1.95-28.03 5.86-28.03 5.86-1.27 1.95-1.27 1.95 0ZM10.06-28.03L14.94-28.03Q19.14-28.03 20.75-24.61L20.75-24.61Q21.39-23.19 21.39-21.63L21.39-21.63Q21.39-18.12 18.95-16.16L18.95-16.16Q17.29-14.84 15.09-14.84L15.09-14.84 10.06-14.84 10.06-28.03ZM31.83 0L53.22 0 53.46-9.77 52.49-9.77 51.66-6.49Q50.49-2 47.75-1.37L47.75-1.37Q47.17-1.27 46.63-1.27L46.63-1.27 39.94-1.27 39.94-28.03 44.04-28.03 44.04-29.3 31.83-29.3 31.83-28.03 35.74-28.03 35.74-1.27 31.83-1.27 31.83 0ZM55.9 0L67.87 0Q67.87-1.07 67.08-1.22L67.08-1.22Q66.84-1.27 66.6-1.27L66.6-1.27 64.01-1.27 64.01-12.65 66.55-15.04 78.12 0 84.91 0Q84.91-1.07 84.13-1.22L84.13-1.22Q83.88-1.27 83.64-1.27L83.64-1.27 82.32-1.27 69.58-17.87 78.27-25.98Q80.07-27.69 81-27.93L81-27.93Q81.44-28.03 81.93-28.03L81.93-28.03Q83-28.03 83.15-28.81L83.15-28.81Q83.2-29.05 83.2-29.3L83.2-29.3 74.41-29.3 74.41-28.03 78.32-28.03 64.01-14.84 64.01-28.03 67.87-28.03 67.87-29.3 55.9-29.3 55.9-28.03 59.81-28.03 59.81-1.27 55.9-1.27 55.9 0ZM104.48-28.03L109.8-28.03Q114.15-28.03 115.42-24.12L115.42-24.12Q115.81-22.85 115.81-21.39L115.81-21.39Q115.81-15.04 110.15-14.4L110.15-14.4Q109.56-14.36 108.97-14.36L108.97-14.36 104.48-14.36 104.48-28.03ZM96.38 0L109.37 0Q109.37-1.07 108.58-1.22L108.58-1.22Q108.34-1.27 108.1-1.27L108.1-1.27 104.48-1.27 104.48-12.94 108.78-12.94Q116.79-12.94 119.37-17.48L119.37-17.48Q120.4-19.19 120.4-21.44L120.4-21.44Q120.4-26.27 116.2-28.22L116.2-28.22Q113.95-29.3 110.83-29.3L110.83-29.3 96.38-29.3 96.38-28.03 100.28-28.03 100.28-1.27 96.38-1.27 96.38 0ZM134.02-20.02L134.02-20.02Q137.44-20.02 138.56-17.14L138.56-17.14Q138.95-16.21 138.95-15.14L138.95-15.14Q138.95-12.7 136.61-12.16L136.61-12.16Q135.39-11.91 133.14-11.96L133.14-11.96 127.97-12.11Q128.21-17.72 131.63-19.43L131.63-19.43Q132.75-20.02 134.02-20.02ZM142.52-4.69L142.52-4.69 141.3-5.13Q139.59-1.42 135.78-0.93L135.78-0.93Q135.29-0.88 134.85-0.88L134.85-0.88Q129.72-0.88 128.41-6.98L128.41-6.98Q128.01-8.69 127.97-10.74L127.97-10.74 133.83-10.64Q139.78-10.55 141.49-11.77L141.49-11.77Q142.81-12.74 142.81-14.55L142.81-14.55Q142.81-17.87 139.44-19.82L139.44-19.82Q137.05-21.24 133.92-21.24L133.92-21.24Q127.82-21.24 125.18-16.16L125.18-16.16Q123.82-13.53 123.82-10.21L123.82-10.21Q123.82-4.15 128.16-1.22L128.16-1.22Q130.75 0.49 134.07 0.49L134.07 0.49Q139.34 0.49 141.83-3.32L141.83-3.32Q142.22-4 142.52-4.69ZM145.49-20.75L145.49-19.53 148.91-19.53 148.91-5.76Q149.25 0.34 154.53 0.54L154.53 0.54Q159.02 0.54 160.14-4.98L160.14-4.98Q160.14-5.03 160.14-5.08L160.14-5.08 158.82-5.32Q157.6-1.27 155.26-0.93L155.26-0.93Q152.62-1.03 152.57-4.69L152.57-4.69 152.57-19.53 160.14-19.53 160.14-20.75 152.57-20.75 152.57-26.42 148.91-25.39 148.91-20.75 145.49-20.75ZM193.63-7.67L193.63-7.67Q193.63-12.01 188.94-14.65L188.94-14.65Q188.02-15.14 183.23-17.24L183.23-17.24Q178.89-19.09 177.76-21.04L177.76-21.04Q177.18-22.12 177.18-23.34L177.18-23.34Q177.18-26.61 180.35-27.88L180.35-27.88Q181.72-28.42 183.38-28.42L183.38-28.42Q187.48-28.42 189.63-25.63L189.63-25.63Q191.04-23.73 191-21L191-21 192.46-21 192.46-29.54Q191.29-29.54 191.09-28.81L191.09-28.81Q191-28.47 191-27.88L191-27.88Q187.53-29.79 183.18-29.79L183.18-29.79Q177.91-29.79 174.98-26.86L174.98-26.86Q173.03-24.8 173.03-22.07L173.03-22.07Q173.03-17.97 177.62-15.38L177.62-15.38Q178.45-14.94 183.18-12.89L183.18-12.89Q187.58-10.94 188.75-8.94L188.75-8.94Q189.38-7.81 189.38-6.49L189.38-6.49Q189.38-3.08 186.06-1.56L186.06-1.56Q184.5-0.88 182.6-0.88L182.6-0.88Q175.13-0.98 174.3-10.01L174.3-10.01 172.83-10.01 172.83 0.1Q174 0.1 174.2-0.59L174.2-0.59Q174.3-0.98 174.3-2L174.3-2Q178.06 0.49 182.84 0.49L182.84 0.49Q188.46 0.49 191.53-2.54L191.53-2.54Q193.63-4.69 193.63-7.67ZM207.4-1.22L207.4-1.22 204.96-1.22 204.96-11.77Q204.96-16.21 208.03-18.21L208.03-18.21Q209.3-19.04 210.67-19.04L210.67-19.04Q213.65-19.04 214.82-16.26L214.82-16.26Q215.36-14.94 215.36-13.33L215.36-13.33 215.36-4.15Q215.36-1.9 214.28-1.46L214.28-1.46Q213.6-1.22 211.94-1.22L211.94-1.22 211.94 0 222.68 0Q222.68-1.07 221.95-1.17L221.95-1.17Q221.75-1.22 221.46-1.22L221.46-1.22 219.02-1.22 219.02-13.33Q219.02-18.65 215.5-20.56L215.5-20.56Q214.14-21.24 212.58-21.24L212.58-21.24Q208.96-21.24 206.52-18.6L206.52-18.6Q205.5-17.48 204.96-16.06L204.96-16.06 204.96-31.74 197.63-31.74 197.63-30.52 201.3-30.52 201.3-4.15Q201.3-1.9 200.03-1.46L200.03-1.46Q199.29-1.22 197.63-1.22L197.63-1.22 197.63 0 208.62 0Q208.62-1.07 207.89-1.17L207.89-1.17Q207.69-1.22 207.4-1.22ZM230.05-10.4L230.05-10.4Q230.05-17.97 234.2-19.63L234.2-19.63Q235.28-20.02 236.45-20.02L236.45-20.02Q241.87-20.02 242.75-13.18L242.75-13.18Q242.89-12.01 242.89-10.6L242.89-10.6Q242.89-2.39 238.4-0.98L238.4-0.98Q237.52-0.73 236.6-0.73L236.6-0.73Q231.66-0.73 230.39-6.59L230.39-6.59Q230.05-8.3 230.05-10.4ZM236.6-21.24L236.6-21.24Q231.91-21.24 228.78-18.02L228.78-18.02Q225.9-15.04 225.9-10.6L225.9-10.6Q225.9-4.44 230.39-1.37L230.39-1.37Q233.13 0.49 236.45 0.49L236.45 0.49Q241.14 0.49 244.21-2.83L244.21-2.83Q247.05-5.86 247.05-10.4L247.05-10.4Q247.05-16.55 242.5-19.53L242.5-19.53Q239.82-21.24 236.6-21.24ZM261.01 8.06L257.59 8.06 257.59-2.05Q260.28 0.29 263.79 0.49L263.79 0.49Q268.14 0.49 271.07-2.78L271.07-2.78Q273.9-5.96 273.9-10.84L273.9-10.84Q273.9-16.41 270.82-19.29L270.82-19.29Q268.67-21.24 265.6-21.24L265.6-21.24Q260.86-21.24 258.52-17.48L258.52-17.48Q257.93-16.5 257.54-15.43L257.54-15.43 257.3-20.75 250.27-20.75 250.27-19.53 253.93-19.53 253.93 5.13Q253.93 7.37 252.66 7.81L252.66 7.81Q251.93 8.06 250.27 8.06L250.27 8.06 250.27 9.28 262.23 9.28Q262.23 8.2 261.5 8.11L261.5 8.11Q261.3 8.06 261.01 8.06L261.01 8.06ZM264.04-19.29L264.04-19.29Q268.28-19.29 269.41-13.96L269.41-13.96Q269.75-12.35 269.75-10.35L269.75-10.35Q269.75-3.17 265.89-1.27L265.89-1.27Q264.77-0.73 263.45-0.73L263.45-0.73Q259.69-0.73 258.27-4.69L258.27-4.69Q257.54-6.69 257.54-9.42L257.54-9.42Q257.54-15.77 260.81-18.21L260.81-18.21Q262.28-19.29 264.04-19.29Z" opacity="1" transform="matrix(1,0,0,1,0,0)" fill="#ffffff" class="wordmark-text-0" data-fill-palette-color="primary" id="text-0"></path></svg></g></svg></g></svg></g></svg></g><g><svg viewBox="0 0 125.9590384670494 82.43290082585278" height="82.43290082585278" width="125.9590384670494"><g><svg xmlns="http://www.w3.org/2000/svg" xmlns:xlink="http://www.w3.org/1999/xlink" version="1.1" x="0" y="0" viewBox="9.233 25.229275484406713 81.53435046899942 53.35951359988812" enable-background="new 0 0 100 100" xml:space="preserve" height="82.43290082585278" width="125.9590384670494" class="icon-icon-0" data-fill-palette-color="accent" id="icon-0"><path d="M85.904 37.68C82.391 35.151 80.425 36.806 80.425 36.806 80.706 35.792 78.457 33.745 78.457 33.745 74.102 32.2 75.929 40.068 75.929 40.068 74.055 40.302 75.085 43.393 75.085 43.393 73.961 45.172 71.713 44.143 71.713 44.143 60.66 38.71 46.796 43.862 46.796 43.862 42.487 46.11 36.023 46.485 36.023 46.485 34.449 46.695 32.34 45.888 30.273 44.768L30.246 44.758C26.92 43.338 23.771 40.662 21.674 38.621A27 27 0 0 1 19.174 35.981L19.105 35.899 19.107 35.898C15.717 31.822 12.98 26.814 12.98 26.814 9.514 22.599 9.233 28.126 9.233 28.126 20.942 51.357 36.305 50.795 36.305 50.795 35.087 54.731 38.132 56.79 38.132 56.79 42.909 60.303 40.239 63.394 40.239 63.394 35.462 66.625 38.553 68.593 38.553 68.593L41.925 75.056C41.785 80.957 48.529 77.683 48.529 77.683 49.232 73.003 45.578 72.246 45.578 72.246L44.735 68.593C48.761 65.216 49.904 61.726 50.054 61.216 50.096 59.772 49.908 57.46 48.602 55.349 48.602 55.349 51.234 58.163 50.48 61.275 55.809 63.021 63.421 61.427 63.421 61.427 69.041 60.583 67.637 66.345 67.637 66.345L67.356 72.808C67.075 79.272 73.539 77.445 73.539 77.445 75.928 76.321 72.695 71.966 72.695 71.966 73.679 70.983 74.241 61.989 74.241 61.989 79.3 61.989 82.109 52.997 82.109 52.997L85.482 47.236C89.416 45.972 87.871 42.881 87.871 42.881L90.681 38.525C91.525 34.167 85.904 37.68 85.904 37.68M73.941 60.609C74.545 60.457 79.254 59.024 81.125 51 81.125 51 80.542 59.519 73.941 60.609" fill="#00d1cd" data-fill-palette-color="accent"></path></svg></g></svg></g></svg></g><defs></defs></svg><rect width="395.52" height="58.74349162795361" fill="none" stroke="none" visibility="hidden"></rect></g></svg></g></svg>