<svg xmlns="http://www.w3.org/2000/svg" version="1.1" xmlns:xlink="http://www.w3.org/1999/xlink" xmlns:svgjs="http://svgjs.dev/svgjs" width="1500" height="579" viewBox="0 0 1500 579"><g transform="matrix(1,0,0,1,-0.9088092958833158,-1.109625793799239)"><svg viewBox="0 0 396 153" data-background-color="#ffffff" preserveAspectRatio="xMidYMid meet" height="579" width="1500" xmlns="http://www.w3.org/2000/svg" xmlns:xlink="http://www.w3.org/1999/xlink"><g id="tight-bounds" transform="matrix(1,0,0,1,0.24007434588679644,0.2932171786723359)"><svg viewBox="0 0 395.52 152.41356564265533" height="152.41356564265533" width="395.52"><g><svg viewBox="0 0 395.52 152.41356564265533" height="152.41356564265533" width="395.52"><g transform="matrix(1,0,0,1,0,78.81786522265554)"><svg viewBox="0 0 395.52 73.59570041999979" height="73.59570041999979" width="395.52"><g id="textblocktransform"><svg viewBox="0 0 395.52 73.59570041999979" height="73.59570041999979" width="395.52" id="textblock"><g><svg viewBox="0 0 395.52 73.59570041999979" height="73.59570041999979" width="395.52"><g transform="matrix(1,0,0,1,0,0)"><svg width="395.52" viewBox="-1.302890000000005 -20.63994 292.59991285752966 54.4450271528666" height="73.59570041999979" data-palette-color="#3d3839"><path d="M38.997 19.149l-0.482 2.095-12.318-2.837 0.483-2.095 2.647 0.404c0.35 0.053 0.643-0.013 0.876-0.198 0.239-0.177 0.387-0.386 0.442-0.627v0l6.19-26.876-18.18 27.655-2.437-0.561-3.965-32.284-6.087 26.429c-0.055 0.24-0.018 0.492 0.114 0.754 0.13 0.269 0.367 0.457 0.711 0.564v0l2.742 0.837-0.482 2.095-10.554-2.43 0.483-2.095 2.832 0.447c0.357 0.055 0.643-0.013 0.857-0.203 0.22-0.182 0.357-0.393 0.413-0.634v0l5.987-25.999c0.054-0.234 0.023-0.487-0.091-0.76-0.11-0.265-0.338-0.447-0.685-0.548v0l-2.744-0.827 0.482-2.095 10.934 2.518-0.301 1.306 3.313 25.986 14.321-21.771 0.334-1.452 11.217 2.583-0.483 2.095-2.693-0.425c-0.349-0.06-0.644 0.002-0.884 0.186-0.236 0.192-0.381 0.405-0.435 0.639v0l-5.987 25.999c-0.055 0.24-0.018 0.492 0.113 0.755 0.136 0.271 0.373 0.459 0.712 0.564v0zM70.357 2.019l-0.316 1.935-2.623-0.135-13.253 21.553c-0.298 0.498-0.748 1.205-1.35 2.119-0.609 0.914-1.298 1.841-2.067 2.783-0.774 0.934-1.563 1.69-2.367 2.268v0c-0.69 0.502-1.421 0.859-2.191 1.07-0.771 0.212-1.574 0.249-2.41 0.113v0c-1.171-0.192-2.019-0.624-2.544-1.298-0.525-0.674-0.727-1.379-0.606-2.116v0c0.179-1.092 0.87-1.992 2.073-2.7v0l4.281 2.879c0.636-0.463 1.304-1.114 2.002-1.953 0.699-0.845 1.35-1.728 1.953-2.649 0.611-0.927 1.094-1.733 1.45-2.418v0l-4.866-22.906-2.677-0.732 0.316-1.934 10.925 1.787-0.316 1.934-2.393-0.239c-0.534-0.04-0.84 0.18-0.919 0.66v0c-0.022 0.132-0.021 0.23 0.003 0.294v0l3.351 15.505 8.245-13.608c0.061-0.085 0.101-0.183 0.119-0.294v0c0.08-0.487-0.128-0.784-0.624-0.893v0l-2.315-0.53 0.316-1.935zM119.065 7.258v0c-0.183 2.433-0.909 4.411-2.18 5.933-1.277 1.522-2.92 2.612-4.929 3.271-2.008 0.658-4.206 0.898-6.592 0.718v0l-0.149-0.011c-0.651-0.049-1.367-0.129-2.148-0.241-0.787-0.119-1.243-0.19-1.368-0.213v0l-0.696 9.274c-0.018 0.246 0.05 0.488 0.206 0.727 0.149 0.245 0.402 0.394 0.759 0.448v0l3.275 0.447-0.161 2.144-13.113-0.984 0.161-2.144 2.648-0.002c0.361 0 0.643-0.109 0.847-0.328 0.203-0.212 0.314-0.441 0.332-0.687v0l1.996-26.605c0.018-0.239-0.057-0.486-0.225-0.739-0.169-0.247-0.432-0.393-0.789-0.44v0l-2.978-0.414 0.161-2.144 11.937 0.895c4.707 0.353 8.12 1.368 10.241 3.045 2.12 1.677 3.042 4.36 2.765 8.05zM113.874 6.938v0c0.182-2.42-0.355-4.359-1.609-5.816-1.254-1.458-3.474-2.306-6.658-2.546v0c-0.452-0.034-0.988-0.064-1.608-0.09-0.619-0.033-0.929-0.05-0.929-0.05v0l-1.179 15.716c0.08 0.006 0.446 0.077 1.097 0.213 0.651 0.142 1.213 0.231 1.685 0.267v0l0.15 0.011c2.579 0.194 4.678-0.328 6.294-1.564 1.624-1.235 2.543-3.282 2.757-6.141zM142.798 25.847l-0.084 3.059c-1.423 0.821-2.953 1.512-4.589 2.074-1.636 0.555-3.3 0.809-4.993 0.763v0c-2.019-0.056-3.899-0.561-5.641-1.517-1.748-0.949-3.139-2.358-4.175-4.226-1.042-1.869-1.525-4.197-1.447-6.983v0c0.072-2.606 0.641-4.864 1.707-6.776 1.06-1.911 2.491-3.376 4.293-4.393 1.809-1.017 3.843-1.495 6.102-1.432v0c3.112 0.086 5.425 1.117 6.937 3.093 1.506 1.969 2.218 4.446 2.136 7.432v0c-0.004 0.16-0.01 0.373-0.018 0.639-0.008 0.273-0.031 0.523-0.07 0.749v0l-16.214-0.448c-0.035 1.266 0.063 2.536 0.295 3.81 0.232 1.267 0.653 2.422 1.265 3.466 0.605 1.044 1.435 1.89 2.49 2.539 1.062 0.65 2.397 0.997 4.003 1.041v0c1.433 0.04 2.841-0.252 4.226-0.873 1.378-0.622 2.637-1.294 3.777-2.017zM127.074 15.639l10.986 0.304 0.03-1.1c0.045-1.646-0.31-3.04-1.065-4.181-0.762-1.148-1.973-1.745-3.632-1.791v0c-1.646-0.045-3.063 0.536-4.25 1.743-1.194 1.201-1.883 2.876-2.069 5.025zM161.445 28.142v0l0.022 2c0 0-0.312 0.14-0.936 0.42-0.624 0.287-1.441 0.576-2.451 0.866-1.017 0.284-2.129 0.433-3.335 0.446v0c-1.873 0.02-3.241-0.408-4.104-1.285-0.87-0.877-1.315-2.303-1.337-4.276v0l-0.179-16.609-3.2 0.034-0.017-1.639 3.402-1.647 2.193-5.334 2.199-0.024 0.066 6.06 7.059-0.077 0.027 2.5-7.059 0.076 0.151 13.97c0.021 1.987 0.37 3.39 1.045 4.209 0.682 0.813 1.69 1.212 3.023 1.197v0c0.973-0.011 1.788-0.163 2.446-0.456 0.657-0.287 0.985-0.431 0.985-0.431zM208.453 18.58v0c0.146 1.674-0.164 3.33-0.932 4.969-0.768 1.633-2.078 3.032-3.93 4.198-1.852 1.172-4.342 1.895-7.469 2.168v0c-1.787 0.156-3.358 0.136-4.714-0.061-1.362-0.189-2.421-0.408-3.179-0.656-0.757-0.242-1.136-0.363-1.135-0.363v0l-0.771-8.836 3.148-0.275 1.15 5.591c0.05 0.19 0.171 0.39 0.364 0.601 0.2 0.217 0.386 0.358 0.558 0.423v0c0.081 0.006 0.573 0.157 1.475 0.454 0.896 0.303 2.115 0.388 3.656 0.253v0c2.132-0.186 3.84-0.86 5.124-2.023 1.291-1.157 1.856-2.661 1.694-4.515v0c-0.088-1.003-0.443-1.859-1.067-2.567-0.63-0.701-1.415-1.305-2.357-1.812-0.941-0.507-1.94-0.955-2.998-1.344-1.058-0.39-2.061-0.764-3.009-1.123v0c-1.418-0.532-2.744-1.116-3.977-1.751-1.234-0.642-2.253-1.473-3.059-2.493-0.812-1.027-1.292-2.383-1.439-4.071v0c-0.173-1.979 0.182-3.743 1.064-5.292 0.875-1.549 2.148-2.801 3.818-3.756 1.663-0.955 3.591-1.528 5.782-1.719v0c1.787-0.156 3.376-0.117 4.768 0.116 1.392 0.227 2.631 0.466 3.717 0.719v0l0.451 0.101 0.678 7.771-2.849 0.248-1.174-4.705c-0.046-0.223-0.16-0.381-0.342-0.472-0.182-0.091-0.352-0.203-0.512-0.337v0c-0.135-0.089-0.555-0.266-1.261-0.533-0.699-0.267-1.756-0.339-3.17-0.215v0c-1.992 0.174-3.518 0.869-4.576 2.086-1.052 1.209-1.505 2.658-1.358 4.344v0c0.133 1.528 0.838 2.741 2.115 3.64 1.284 0.905 3.082 1.688 5.394 2.35v0c3.121 0.872 5.567 1.947 7.338 3.225 1.771 1.278 2.766 3.165 2.984 5.662zM238.841 21.92l0.267 1.931-11.035 1.526-0.267-1.931 2.01-0.43c0.286-0.073 0.525-0.221 0.716-0.442 0.191-0.228 0.265-0.494 0.223-0.798v0l-1.767-12.778c-0.196-1.42-0.696-2.549-1.498-3.387-0.808-0.83-2.173-1.113-4.095-0.847v0c-0.872 0.121-1.794 0.386-2.767 0.796-0.965 0.416-1.777 0.875-2.434 1.377v0l2.249 16.265c0.094 0.68 0.474 0.998 1.141 0.953v0l2.151-0.146 0.267 1.931-11.154 1.543-0.267-1.932 2.357-0.477c0.687-0.142 0.983-0.553 0.889-1.234v0l-4.121-29.796-3.704 0.512-0.228-1.644 6.075-2.789 1.982-0.274 2.089 15.107c0.549-0.46 1.266-0.993 2.151-1.6 0.885-0.607 1.828-1.165 2.827-1.673 1-0.508 1.926-0.822 2.778-0.94v0c1.902-0.263 3.585 0.13 5.049 1.18 1.458 1.05 2.363 2.85 2.715 5.399v0l1.911 13.818c0.042 0.304 0.186 0.54 0.431 0.708 0.244 0.161 0.514 0.238 0.81 0.231v0zM263.688 7.023v0c0.436 2.319 0.349 4.51-0.261 6.571-0.603 2.06-1.679 3.806-3.229 5.237-1.544 1.423-3.518 2.36-5.922 2.812v0c-2.385 0.448-4.551 0.292-6.498-0.468-1.954-0.759-3.578-1.987-4.874-3.683-1.296-1.697-2.164-3.721-2.607-6.073v0c-0.44-2.339-0.362-4.541 0.234-6.607 0.601-2.073 1.682-3.827 3.244-5.26 1.561-1.44 3.55-2.387 5.968-2.841v0c2.45-0.461 4.643-0.293 6.576 0.504 1.94 0.795 3.547 2.054 4.82 3.775 1.265 1.716 2.115 3.727 2.549 6.033zM258.558 7.936v0c-0.337-1.795-0.888-3.425-1.651-4.889-0.764-1.464-1.72-2.583-2.87-3.358-1.144-0.782-2.453-1.035-3.928-0.757v0c-1.52 0.286-2.674 1.001-3.463 2.146-0.79 1.139-1.272 2.528-1.445 4.169-0.173 1.64-0.091 3.358 0.246 5.153v0c0.334 1.776 0.883 3.399 1.648 4.87 0.773 1.476 1.73 2.602 2.873 3.377 1.151 0.781 2.463 1.033 3.938 0.756v0c1.507-0.283 2.651-0.997 3.433-2.141 0.79-1.139 1.275-2.529 1.455-4.171 0.18-1.641 0.101-3.36-0.236-5.155zM290.806 0.122v0c0.611 2.548 0.651 4.89 0.122 7.025-0.522 2.141-1.578 3.954-3.169 5.439-1.584 1.484-3.66 2.533-6.228 3.149v0c-0.583 0.14-1.222 0.252-1.914 0.335-0.693 0.084-1.284 0.147-1.775 0.189-0.497 0.044-0.745 0.066-0.745 0.066v0l1.737 7.245c0.072 0.298 0.232 0.51 0.481 0.635 0.249 0.125 0.527 0.168 0.833 0.129v0l2.953-0.379 0.45 1.877-11.834 2.838-0.45-1.877 2.259-0.871c0.67-0.209 0.929-0.631 0.776-1.266v0l-6.568-27.393-3.355 0.804-0.383-1.595 5.545-3.293 1.897-0.455 0.582 2.431c0 0 0.168-0.201 0.503-0.604 0.33-0.395 0.79-0.878 1.38-1.451 0.591-0.567 1.291-1.105 2.101-1.615 0.809-0.516 1.686-0.888 2.633-1.115v0c1.679-0.403 3.341-0.277 4.986 0.378 1.638 0.656 3.1 1.776 4.384 3.361 1.285 1.584 2.218 3.588 2.799 6.013zM286.1 1.98v0c-0.403-1.679-1.03-3.153-1.883-4.423-0.846-1.271-1.874-2.211-3.083-2.819-1.208-0.608-2.558-0.734-4.049-0.376v0c-0.81 0.194-1.566 0.502-2.267 0.924-0.703 0.415-1.271 0.805-1.704 1.17-0.434 0.364-0.65 0.547-0.651 0.547v0l4.018 16.755c0 0 0.439 0.028 1.316 0.085 0.877 0.057 1.815-0.034 2.814-0.273v0c1.789-0.429 3.147-1.241 4.074-2.438 0.928-1.189 1.496-2.594 1.705-4.213 0.21-1.613 0.113-3.26-0.29-4.939z" opacity="1" transform="matrix(1,0,0,1,0,0)" fill="#3d3839" class="wordmark-text-0" data-fill-palette-color="primary" id="text-0"></path></svg></g></svg></g></svg></g></svg></g><g transform="matrix(1,0,0,1,146.45128180719502,0)"><svg viewBox="0 0 102.61743638560995 73.59570041999979" height="73.59570041999979" width="102.61743638560995"><g><svg xmlns="http://www.w3.org/2000/svg" xmlns:xlink="http://www.w3.org/1999/xlink" version="1.1" x="0" y="0" viewBox="17.157 24.612 69.17600111024117 49.61200000000001" style="enable-background:new 0 0 100 100;" xml:space="preserve" height="73.59570041999979" width="102.61743638560995" class="icon-icon-0" data-fill-palette-color="accent" id="icon-0"><g fill="#ffc604" data-fill-palette-color="accent"><path d="M74.31 50.046H50.974C50.146 50.046 49.475 50.717 49.475 51.545V66.575C49.475 67.403 50.146 68.074 50.974 68.074H74.31C75.138 68.074 75.809 67.403 75.809 66.575V51.545C75.809 50.717 75.138 50.046 74.31 50.046M72.811 65.077H52.473V53.045H72.81z" fill="#ffc604" data-fill-palette-color="accent"></path><path d="M76.496 24.612H26.997L23.998 25.499 17.586 32.044C17.311 32.324 17.157 32.701 17.157 33.094V38.8A8.12 8.12 0 0 0 21.06 45.735V72.725C21.06 73.553 21.731 74.224 22.559 74.224H30.121L30.143 74.222 30.165 74.224C30.993 74.224 31.664 73.553 31.664 72.725V53.045H42.412V72.724C42.412 73.552 43.083 74.223 43.911 74.223H80.625C81.453 74.223 82.124 73.552 82.124 72.724V45.91A8.12 8.12 0 0 0 86.333 38.799V33.093A1.5 1.5 0 0 0 85.906 32.043L79.494 25.498zM79.128 71.224H45.412V51.546C45.412 50.718 44.741 50.047 43.913 50.047H30.166C29.338 50.047 28.667 50.718 28.667 51.546V71.225H24.061V46.825A8.11 8.11 0 0 0 31.894 43.494C33.367 45.564 35.784 46.916 38.512 46.916S43.657 45.564 45.13 43.494A8.11 8.11 0 0 0 58.366 43.494 8.12 8.12 0 0 0 64.984 46.916 8.11 8.11 0 0 0 71.602 43.494 8.11 8.11 0 0 0 79.13 46.864V71.225zM83.336 38.798C83.336 41.62 81.04 43.916 78.218 43.916S73.1 41.62 73.1 38.798A1.499 1.499 0 1 0 70.102 38.798C70.102 41.62 67.806 43.916 64.984 43.916S59.866 41.62 59.866 38.798A1.499 1.499 0 1 0 56.868 38.798C56.868 41.62 54.572 43.916 51.749 43.916S46.631 41.62 46.631 38.798A1.499 1.499 0 1 0 43.633 38.798 5.124 5.124 0 0 1 38.515 43.916 5.124 5.124 0 0 1 33.397 38.798 1.499 1.499 0 1 0 30.399 38.798C30.399 41.62 28.103 43.916 25.281 43.916S20.163 41.62 20.163 38.798V33.704L26.134 27.61H77.37L83.341 33.704z" fill="#ffc604" data-fill-palette-color="accent"></path></g></svg></g></svg></g><g></g></svg></g><defs></defs></svg><rect width="395.52" height="152.41356564265533" fill="none" stroke="none" visibility="hidden"></rect></g></svg></g></svg>